# xmcd CD database file
#
# Track frame offsets:
#	180
#	69103
#	127017
#	171922
#
# Disc length: 3176 seconds
#
# Revision: 0
# Processed by: cddbd v1.4PL0 Copyright (c) Steve Scherf et al.
# Submitted via: CDex 1.51
#
DISCID=300c6604
DTITLE=Slawinski, Andrzej - Water Planet
DYEAR=1900
DGENRE=New Age
TTITLE0=Water Wheel
TTITLE1=Boats of the Ancestors
TTITLE2=Surf of the Ancestors
TTITLE3=In the Court of Poseidon
EXTD=
EXTT0=
EXTT1=
EXTT2=
EXTT3=
PLAYORDER=
